<?xml version="1.0" encoding="UTF-8" standalone="no"?>
<svg width="4387.5mm" height="3924.65mm"
 viewBox="0 0 12437 11125"
 xmlns="http://www.w3.org/2000/svg" xmlns:xlink="http://www.w3.org/1999/xlink"  version="1.2" baseProfile="tiny">
<title>Qt SVG Document</title>
<desc>Generated with Qt</desc>
<defs>
</defs>
<g fill="none" stroke="black" stroke-width="1" fill-rule="evenodd" stroke-linecap="square" stroke-linejoin="bevel" >

<g fill="#ffffff" fill-opacity="1" stroke="none" transform="matrix(1,0,0,1,0,0)"
font-family="Sans Serif" font-size="9" font-weight="400" font-style="normal" 
>
<rect x="0" y="0" width="12437" height="11125"/>
</g>

<g fill="none" stroke="#000000" stroke-opacity="1" stroke-width="1" stroke-linecap="round" stroke-linejoin="round" transform="matrix(1,0,0,1,0,0)"
font-family="Sans Serif" font-size="9" font-weight="400" font-style="normal" 
>
<circle vector-effect="non-scaling-stroke" cx="6311.51" cy="5501.04" r="1598.56"/>
<polyline fill="none" vector-effect="non-scaling-stroke" points="1316,9997 11307,9997 " />
<polyline fill="none" vector-effect="non-scaling-stroke" points="1316,9997 1316,6 " />
<polyline fill="none" vector-effect="non-scaling-stroke" points="1316,6 11307,6 " />
<polyline fill="none" vector-effect="non-scaling-stroke" points="11307,6 11307,1005 " />
<polyline fill="none" vector-effect="non-scaling-stroke" points="11307,9997 11307,4002 " />
<polyline fill="none" vector-effect="non-scaling-stroke" points="1316,10059 1316,11121 " />
<polyline fill="none" vector-effect="non-scaling-stroke" points="11307,10059 11307,11121 " />
<polyline fill="none" vector-effect="non-scaling-stroke" points="1316,10996 11307,10996 " />
<polyline fill="none" vector-effect="non-scaling-stroke" points="6048,10739 6103,10684 " />
<polyline fill="none" vector-effect="non-scaling-stroke" points="6103,10684 6103,10934 " />
<polyline fill="none" vector-effect="non-scaling-stroke" points="6270,10698 6269,10696 6267,10695 6266,10693 6264,10692 6263,10691 6261,10690 6259,10689 6258,10688 6256,10687 6254,10686 6252,10685 6250,10685 6248,10684 6246,10684 6244,10684 6242,10684 6240,10684 6238,10684 6236,10684 6234,10685 6232,10685 6231,10686 6229,10687 6227,10687 6225,10688 6223,10689 6222,10691 6220,10692 6219,10693 6217,10694 6216,10696 6215,10697 6214,10698 " />
<polyline fill="none" vector-effect="non-scaling-stroke" points="6214,10698 6213,10700 6213,10701 6212,10703 6211,10705 6210,10707 6209,10708 6208,10710 6207,10712 6207,10714 6206,10716 6205,10718 6204,10719 6203,10721 6203,10723 6202,10725 6201,10727 6201,10729 6200,10731 6199,10733 6199,10734 6198,10736 6197,10738 6197,10740 6196,10742 6196,10744 6195,10746 6195,10748 6194,10750 6194,10752 6193,10754 6193,10756 6192,10758 6192,10760 6191,10762 6191,10763 6191,10765 6190,10767 6190,10769 6190,10771 6189,10773 6189,10775 6189,10777 6188,10779 6188,10781 6188,10783 6188,10785 6188,10787 6187,10789 6187,10791 6187,10793 6187,10795 6187,10797 6187,10799 6187,10801 6187,10803 6187,10805 6187,10807 6187,10809 6187,10811 6187,10813 6187,10815 6187,10817 6187,10819 6187,10821 6187,10823 6187,10825 6187,10827 6188,10829 6188,10831 6188,10833 6188,10835 6188,10837 6189,10839 6189,10841 6189,10843 6189,10845 6190,10847 6190,10849 6190,10851 6191,10853 6191,10855 6192,10857 6192,10859 6192,10861 6193,10863 6193,10865 6194,10867 6194,10869 6195,10870 6195,10872 6196,10874 6196,10876 6197,10878 6198,10880 6198,10882 6199,10884 6200,10886 6200,10888 6201,10890 6202,10891 6202,10893 6203,10895 6204,10897 6204,10899 6205,10901 6206,10903 6207,10904 6208,10906 6209,10908 6209,10910 6210,10912 6211,10913 6212,10915 6213,10917 6214,10919 6214,10920 " />
<polyline fill="none" vector-effect="non-scaling-stroke" points="6214,10920 6216,10921 6217,10923 6218,10924 6220,10926 6221,10927 6223,10928 6225,10929 6227,10930 6228,10931 6230,10932 6232,10932 6234,10933 6236,10933 6238,10933 6240,10934 6242,10934 6244,10934 6246,10933 6248,10933 6250,10933 6252,10932 6254,10932 6256,10931 6257,10930 6259,10929 6261,10928 6263,10927 6264,10926 6266,10924 6267,10923 6268,10922 6270,10920 " />
<polyline fill="none" vector-effect="non-scaling-stroke" points="6270,10920 6271,10918 6272,10916 6273,10914 6274,10913 6274,10911 6275,10909 6276,10907 6277,10905 6278,10904 6279,10902 6279,10900 6280,10898 6281,10896 6282,10894 6282,10892 6283,10891 6284,10889 6284,10887 6285,10885 6286,10883 6286,10881 6287,10879 6287,10877 6288,10875 6289,10874 6289,10872 6290,10870 6290,10868 6291,10866 6291,10864 6292,10862 6292,10860 6292,10858 6293,10856 6293,10854 6294,10852 6294,10850 6294,10848 6295,10846 6295,10844 6295,10842 6296,10840 6296,10838 6296,10836 6296,10834 6296,10832 6297,10830 6297,10828 6297,10826 6297,10824 6297,10822 6297,10820 6297,10818 6298,10816 6298,10814 6298,10812 6298,10810 6298,10808 6298,10806 6298,10804 6298,10802 6297,10800 6297,10798 6297,10796 6297,10794 6297,10792 6297,10790 6297,10788 6297,10786 6296,10784 6296,10782 6296,10780 6296,10778 6295,10776 6295,10774 6295,10772 6295,10771 6294,10769 6294,10767 6293,10765 6293,10763 6293,10761 6292,10759 6292,10757 6291,10755 6291,10753 6290,10751 6290,10749 6289,10747 6289,10745 6288,10743 6288,10741 6287,10739 6287,10737 6286,10736 6285,10734 6285,10732 6284,10730 6283,10728 6283,10726 6282,10724 6281,10722 6281,10721 6280,10719 6279,10717 6278,10715 6277,10713 6277,10711 6276,10710 6275,10708 6274,10706 6273,10704 6272,10702 6271,10701 6270,10699 6270,10698 " />
<polyline fill="none" vector-effect="non-scaling-stroke" points="6381,10934 6381,10920 " />
<polyline fill="none" vector-effect="non-scaling-stroke" points="6547,10698 6546,10696 6545,10695 6543,10693 6542,10692 6540,10691 6539,10690 6537,10689 6535,10688 6533,10687 6532,10686 6530,10685 6528,10685 6526,10684 6524,10684 6522,10684 6520,10684 6518,10684 6516,10684 6514,10684 6512,10685 6510,10685 6508,10686 6506,10687 6504,10687 6503,10688 6501,10689 6499,10691 6498,10692 6496,10693 6495,10694 6493,10696 6492,10697 6492,10698 " />
<polyline fill="none" vector-effect="non-scaling-stroke" points="6492,10698 6491,10700 6490,10701 6489,10703 6488,10705 6487,10707 6487,10708 6486,10710 6485,10712 6484,10714 6483,10716 6482,10718 6482,10719 6481,10721 6480,10723 6480,10725 6479,10727 6478,10729 6477,10731 6477,10733 6476,10734 6476,10736 6475,10738 6474,10740 6474,10742 6473,10744 6473,10746 6472,10748 6472,10750 6471,10752 6471,10754 6470,10756 6470,10758 6469,10760 6469,10762 6469,10763 6468,10765 6468,10767 6467,10769 6467,10771 6467,10773 6467,10775 6466,10777 6466,10779 6466,10781 6466,10783 6465,10785 6465,10787 6465,10789 6465,10791 6465,10793 6465,10795 6464,10797 6464,10799 6464,10801 6464,10803 6464,10805 6464,10807 6464,10809 6464,10811 6464,10813 6464,10815 6464,10817 6464,10819 6464,10821 6465,10823 6465,10825 6465,10827 6465,10829 6465,10831 6465,10833 6466,10835 6466,10837 6466,10839 6466,10841 6467,10843 6467,10845 6467,10847 6468,10849 6468,10851 6468,10853 6469,10855 6469,10857 6470,10859 6470,10861 6470,10863 6471,10865 6471,10867 6472,10869 6472,10870 6473,10872 6473,10874 6474,10876 6475,10878 6475,10880 6476,10882 6476,10884 6477,10886 6478,10888 6478,10890 6479,10891 6480,10893 6481,10895 6481,10897 6482,10899 6483,10901 6484,10903 6484,10904 6485,10906 6486,10908 6487,10910 6488,10912 6489,10913 6490,10915 6490,10917 6491,10919 6492,10920 " />
<polyline fill="none" vector-effect="non-scaling-stroke" points="6492,10920 6493,10921 6494,10923 6496,10924 6497,10926 6499,10927 6501,10928 6502,10929 6504,10930 6506,10931 6508,10932 6510,10932 6512,10933 6514,10933 6515,10933 6517,10934 6519,10934 6521,10934 6523,10933 6525,10933 6527,10933 6529,10932 6531,10932 6533,10931 6535,10930 6537,10929 6538,10928 6540,10927 6542,10926 6543,10924 6545,10923 6546,10922 6547,10920 " />
<polyline fill="none" vector-effect="non-scaling-stroke" points="6547,10920 6548,10918 6549,10916 6550,10914 6551,10913 6552,10911 6553,10909 6554,10907 6554,10905 6555,10904 6556,10902 6557,10900 6558,10898 6558,10896 6559,10894 6560,10892 6561,10891 6561,10889 6562,10887 6563,10885 6563,10883 6564,10881 6564,10879 6565,10877 6566,10875 6566,10874 6567,10872 6567,10870 6568,10868 6568,10866 6569,10864 6569,10862 6570,10860 6570,10858 6570,10856 6571,10854 6571,10852 6572,10850 6572,10848 6572,10846 6572,10844 6573,10842 6573,10840 6573,10838 6574,10836 6574,10834 6574,10832 6574,10830 6574,10828 6575,10826 6575,10824 6575,10822 6575,10820 6575,10818 6575,10816 6575,10814 6575,10812 6575,10810 6575,10808 6575,10806 6575,10804 6575,10802 6575,10800 6575,10798 6575,10796 6575,10794 6575,10792 6574,10790 6574,10788 6574,10786 6574,10784 6574,10782 6573,10780 6573,10778 6573,10776 6573,10774 6572,10772 6572,10771 6572,10769 6571,10767 6571,10765 6571,10763 6570,10761 6570,10759 6569,10757 6569,10755 6568,10753 6568,10751 6567,10749 6567,10747 6566,10745 6566,10743 6565,10741 6565,10739 6564,10737 6564,10736 6563,10734 6562,10732 6562,10730 6561,10728 6560,10726 6560,10724 6559,10722 6558,10721 6557,10719 6557,10717 6556,10715 6555,10713 6554,10711 6553,10710 6552,10708 6552,10706 6551,10704 6550,10702 6549,10701 6548,10699 6547,10698 " />
</g>

<g fill="#000000" fill-opacity="1" stroke="#000000" stroke-opacity="1" stroke-width="1" stroke-linecap="round" stroke-linejoin="round" transform="matrix(1,0,0,1,0,0)"
font-family="Sans Serif" font-size="9" font-weight="400" font-style="normal" 
>
<path vector-effect="non-scaling-stroke" fill-rule="evenodd" d="M1316,10996 L1566,10955 L1566,11038 L1316,10996"/>
</g>

<g fill="#000000" fill-opacity="1" stroke="#000000" stroke-opacity="1" stroke-width="1" stroke-linecap="round" stroke-linejoin="round" transform="matrix(1,0,0,1,0,0)"
font-family="Sans Serif" font-size="9" font-weight="400" font-style="normal" 
>
<path vector-effect="non-scaling-stroke" fill-rule="evenodd" d="M11307,10996 L11057,11038 L11057,10955 L11307,10996"/>
</g>

<g fill="none" stroke="#000000" stroke-opacity="1" stroke-width="1" stroke-linecap="round" stroke-linejoin="round" transform="matrix(1,0,0,1,0,0)"
font-family="Sans Serif" font-size="9" font-weight="400" font-style="normal" 
>
<polyline fill="none" vector-effect="non-scaling-stroke" points="1254,9997 192,9997 " />
<polyline fill="none" vector-effect="non-scaling-stroke" points="1254,6 192,6 " />
<polyline fill="none" vector-effect="non-scaling-stroke" points="317,9997 317,6 " />
<polyline fill="none" vector-effect="non-scaling-stroke" points="60,5265 5,5210 " />
<polyline fill="none" vector-effect="non-scaling-stroke" points="5,5210 254,5210 " />
<polyline fill="none" vector-effect="non-scaling-stroke" points="19,5043 17,5044 16,5046 14,5047 13,5049 12,5050 10,5052 9,5054 8,5055 8,5057 7,5059 6,5061 6,5063 5,5065 5,5067 5,5069 5,5071 5,5073 5,5075 5,5077 6,5079 6,5081 7,5082 7,5084 8,5086 9,5088 10,5090 11,5091 13,5093 14,5094 15,5096 17,5097 18,5098 19,5099 " />
<polyline fill="none" vector-effect="non-scaling-stroke" points="19,5099 20,5100 22,5100 24,5101 26,5102 27,5103 29,5104 31,5105 33,5106 35,5106 37,5107 38,5108 40,5109 42,5110 44,5110 46,5111 48,5112 50,5112 51,5113 53,5114 55,5114 57,5115 59,5116 61,5116 63,5117 65,5117 67,5118 69,5118 71,5119 73,5119 74,5120 76,5120 78,5121 80,5121 82,5122 84,5122 86,5122 88,5123 90,5123 92,5123 94,5124 96,5124 98,5124 100,5125 102,5125 104,5125 106,5125 108,5125 110,5126 112,5126 114,5126 116,5126 118,5126 120,5126 122,5126 124,5126 126,5126 128,5126 130,5126 132,5126 134,5126 136,5126 138,5126 140,5126 142,5126 144,5126 146,5126 148,5126 150,5125 152,5125 154,5125 156,5125 158,5125 160,5124 162,5124 164,5124 166,5124 168,5123 170,5123 172,5123 174,5122 176,5122 178,5121 180,5121 182,5121 184,5120 185,5120 187,5119 189,5119 191,5118 193,5118 195,5117 197,5117 199,5116 201,5115 203,5115 205,5114 207,5113 208,5113 210,5112 212,5111 214,5111 216,5110 218,5109 220,5109 221,5108 223,5107 225,5106 227,5105 229,5104 231,5104 232,5103 234,5102 236,5101 238,5100 240,5099 241,5099 " />
<polyline fill="none" vector-effect="non-scaling-stroke" points="241,5099 242,5097 244,5096 245,5095 246,5093 248,5092 249,5090 250,5088 251,5086 252,5085 252,5083 253,5081 253,5079 254,5077 254,5075 254,5073 254,5071 254,5069 254,5067 254,5065 254,5063 253,5061 252,5059 252,5057 251,5056 250,5054 249,5052 248,5050 247,5049 245,5047 244,5046 242,5045 241,5043 " />
<polyline fill="none" vector-effect="non-scaling-stroke" points="241,5043 239,5042 237,5041 235,5040 233,5039 232,5039 230,5038 228,5037 226,5036 224,5035 223,5034 221,5034 219,5033 217,5032 215,5031 213,5031 211,5030 210,5029 208,5029 206,5028 204,5027 202,5027 200,5026 198,5026 196,5025 194,5024 192,5024 190,5023 189,5023 187,5022 185,5022 183,5021 181,5021 179,5021 177,5020 175,5020 173,5019 171,5019 169,5019 167,5018 165,5018 163,5018 161,5017 159,5017 157,5017 155,5017 153,5017 151,5016 149,5016 147,5016 145,5016 143,5016 141,5016 139,5016 137,5015 135,5015 133,5015 131,5015 129,5015 127,5015 125,5015 123,5015 121,5016 119,5016 117,5016 115,5016 113,5016 111,5016 109,5016 107,5016 105,5017 103,5017 101,5017 99,5017 97,5018 95,5018 93,5018 91,5018 89,5019 87,5019 85,5020 83,5020 81,5020 80,5021 78,5021 76,5022 74,5022 72,5023 70,5023 68,5024 66,5024 64,5025 62,5025 60,5026 58,5026 56,5027 54,5028 53,5028 51,5029 49,5030 47,5030 45,5031 43,5032 41,5032 39,5033 38,5034 36,5035 34,5036 32,5036 30,5037 29,5038 27,5039 25,5040 23,5041 21,5042 20,5043 19,5043 " />
<polyline fill="none" vector-effect="non-scaling-stroke" points="254,4932 241,4932 " />
<polyline fill="none" vector-effect="non-scaling-stroke" points="19,4766 17,4767 16,4768 14,4770 13,4771 12,4773 10,4774 9,4776 8,4778 8,4780 7,4781 6,4783 6,4785 5,4787 5,4789 5,4791 5,4793 5,4795 5,4797 5,4799 6,4801 6,4803 7,4805 7,4807 8,4809 9,4810 10,4812 11,4814 13,4815 14,4817 15,4818 17,4820 18,4821 19,4821 " />
<polyline fill="none" vector-effect="non-scaling-stroke" points="19,4821 20,4822 22,4823 24,4824 26,4825 27,4826 29,4826 31,4827 33,4828 35,4829 37,4830 38,4831 40,4831 42,4832 44,4833 46,4833 48,4834 50,4835 51,4836 53,4836 55,4837 57,4837 59,4838 61,4839 63,4839 65,4840 67,4840 69,4841 71,4841 73,4842 74,4842 76,4843 78,4843 80,4844 82,4844 84,4844 86,4845 88,4845 90,4846 92,4846 94,4846 96,4846 98,4847 100,4847 102,4847 104,4847 106,4848 108,4848 110,4848 112,4848 114,4848 116,4848 118,4849 120,4849 122,4849 124,4849 126,4849 128,4849 130,4849 132,4849 134,4849 136,4849 138,4849 140,4849 142,4849 144,4848 146,4848 148,4848 150,4848 152,4848 154,4848 156,4847 158,4847 160,4847 162,4847 164,4846 166,4846 168,4846 170,4845 172,4845 174,4845 176,4844 178,4844 180,4843 182,4843 184,4843 185,4842 187,4842 189,4841 191,4841 193,4840 195,4840 197,4839 199,4838 201,4838 203,4837 205,4837 207,4836 208,4835 210,4835 212,4834 214,4833 216,4832 218,4832 220,4831 221,4830 223,4829 225,4829 227,4828 229,4827 231,4826 232,4825 234,4824 236,4823 238,4823 240,4822 241,4821 " />
<polyline fill="none" vector-effect="non-scaling-stroke" points="241,4821 242,4820 244,4819 245,4817 246,4816 248,4814 249,4812 250,4811 251,4809 252,4807 252,4805 253,4803 253,4801 254,4799 254,4798 254,4796 254,4794 254,4792 254,4790 254,4788 254,4786 253,4784 252,4782 252,4780 251,4778 250,4776 249,4775 248,4773 247,4771 245,4770 244,4768 242,4767 241,4766 " />
<polyline fill="none" vector-effect="non-scaling-stroke" points="241,4766 239,4765 237,4764 235,4763 233,4762 232,4761 230,4760 228,4759 226,4759 224,4758 223,4757 221,4756 219,4755 217,4755 215,4754 213,4753 211,4752 210,4752 208,4751 206,4750 204,4750 202,4749 200,4749 198,4748 196,4747 194,4747 192,4746 190,4746 189,4745 187,4745 185,4744 183,4744 181,4743 179,4743 177,4743 175,4742 173,4742 171,4741 169,4741 167,4741 165,4741 163,4740 161,4740 159,4740 157,4739 155,4739 153,4739 151,4739 149,4739 147,4738 145,4738 143,4738 141,4738 139,4738 137,4738 135,4738 133,4738 131,4738 129,4738 127,4738 125,4738 123,4738 121,4738 119,4738 117,4738 115,4738 113,4738 111,4739 109,4739 107,4739 105,4739 103,4739 101,4740 99,4740 97,4740 95,4740 93,4741 91,4741 89,4741 87,4742 85,4742 83,4742 81,4743 80,4743 78,4744 76,4744 74,4745 72,4745 70,4746 68,4746 66,4747 64,4747 62,4748 60,4748 58,4749 56,4749 54,4750 53,4751 51,4751 49,4752 47,4753 45,4753 43,4754 41,4755 39,4756 38,4756 36,4757 34,4758 32,4759 30,4760 29,4761 27,4761 25,4762 23,4763 21,4764 20,4765 19,4766 " />
</g>

<g fill="#000000" fill-opacity="1" stroke="#000000" stroke-opacity="1" stroke-width="1" stroke-linecap="round" stroke-linejoin="round" transform="matrix(1,0,0,1,0,0)"
font-family="Sans Serif" font-size="9" font-weight="400" font-style="normal" 
>
<path vector-effect="non-scaling-stroke" fill-rule="evenodd" d="M317,9997 L275,9747 L358,9747 L317,9997"/>
</g>

<g fill="#000000" fill-opacity="1" stroke="#000000" stroke-opacity="1" stroke-width="1" stroke-linecap="round" stroke-linejoin="round" transform="matrix(1,0,0,1,0,0)"
font-family="Sans Serif" font-size="9" font-weight="400" font-style="normal" 
>
<path vector-effect="non-scaling-stroke" fill-rule="evenodd" d="M317,6 L358,256 L275,256 L317,6"/>
</g>

<g fill="none" stroke="#000000" stroke-opacity="1" stroke-width="1" stroke-linecap="round" stroke-linejoin="round" transform="matrix(1,0,0,1,0,0)"
font-family="Sans Serif" font-size="9" font-weight="400" font-style="normal" 
>
<polyline fill="none" vector-effect="non-scaling-stroke" points="11369,9997 12431,9997 " />
<polyline fill="none" vector-effect="non-scaling-stroke" points="11369,4002 12431,4002 " />
<polyline fill="none" vector-effect="non-scaling-stroke" points="12306,9997 12306,4002 " />
<polyline fill="none" vector-effect="non-scaling-stroke" points="12105,7194 12105,7138 " />
<polyline fill="none" vector-effect="non-scaling-stroke" points="12160,7083 12158,7083 12156,7083 12154,7083 12152,7084 12150,7084 12149,7084 12147,7085 12145,7085 12143,7086 12141,7087 12139,7087 12137,7088 12135,7089 12134,7090 12132,7091 12130,7092 12128,7093 12127,7094 12125,7095 12124,7097 12122,7098 12121,7100 12119,7101 12118,7102 12117,7104 12116,7106 12115,7107 12113,7109 12112,7111 12111,7112 12111,7114 12110,7116 12109,7118 12108,7120 12108,7122 12107,7123 12106,7125 12106,7127 12106,7129 12105,7131 12105,7133 12105,7135 12105,7137 12105,7138 " />
<polyline fill="none" vector-effect="non-scaling-stroke" points="12160,7083 12188,7083 " />
<polyline fill="none" vector-effect="non-scaling-stroke" points="12188,7194 12190,7194 12192,7194 12194,7194 12196,7193 12198,7193 12200,7193 12202,7192 12204,7192 12206,7191 12208,7190 12210,7190 12211,7189 12213,7188 12215,7187 12217,7186 12218,7185 12220,7184 12222,7183 12223,7181 12225,7180 12226,7179 12228,7177 12229,7176 12230,7174 12232,7173 12233,7171 12234,7170 12235,7168 12236,7166 12237,7165 12238,7163 12239,7161 12240,7159 12240,7157 12241,7155 12242,7153 12242,7152 12243,7150 12243,7148 12243,7146 12243,7144 12244,7142 12244,7140 12244,7138 12244,7136 12243,7134 12243,7132 12243,7130 12243,7128 12242,7126 12242,7124 12241,7122 12241,7120 12240,7118 12239,7116 12238,7114 12237,7113 12236,7111 12235,7109 12234,7108 12233,7106 12232,7104 12231,7103 12229,7101 12228,7100 12227,7098 12225,7097 12224,7096 12222,7094 12220,7093 12219,7092 12217,7091 12215,7090 12214,7089 12212,7088 12210,7087 12208,7087 12206,7086 12204,7085 12202,7085 12200,7084 12198,7084 12197,7084 12195,7083 12193,7083 12191,7083 12189,7083 12188,7083 " />
<polyline fill="none" vector-effect="non-scaling-stroke" points="12188,7194 12105,7194 " />
<polyline fill="none" vector-effect="non-scaling-stroke" points="11994,7111 11994,7113 11995,7115 11996,7116 11996,7118 11997,7120 11998,7122 11999,7124 11999,7126 12000,7128 12001,7129 12002,7131 12003,7133 12004,7135 12005,7136 12006,7138 12007,7140 12008,7141 12009,7143 12010,7145 12011,7146 12013,7148 12014,7150 12015,7151 12016,7153 12018,7154 12019,7156 12020,7157 12022,7159 12023,7160 12025,7161 12026,7163 12027,7164 12029,7166 12031,7167 12032,7168 12034,7169 12035,7171 12037,7172 12038,7173 12040,7174 12042,7175 12043,7176 12045,7177 12047,7178 12049,7179 12050,7180 12052,7181 12054,7182 12056,7183 12058,7184 12059,7185 12061,7185 12063,7186 12065,7187 12067,7188 12069,7188 12071,7189 12073,7189 12074,7190 12076,7190 12078,7191 12080,7191 12082,7192 12084,7192 12086,7192 12088,7193 12090,7193 12092,7193 12094,7193 12096,7194 12098,7194 12100,7194 12102,7194 12104,7194 12105,7194 " />
<polyline fill="none" vector-effect="non-scaling-stroke" points="12244,7000 12230,7000 " />
<polyline fill="none" vector-effect="non-scaling-stroke" points="12008,6833 12006,6834 12005,6836 12003,6837 12002,6839 12001,6840 12000,6842 11999,6844 11998,6845 11997,6847 11996,6849 11995,6851 11995,6853 11994,6855 11994,6857 11994,6859 11994,6861 11994,6863 11994,6865 11994,6867 11995,6869 11995,6871 11996,6873 11997,6874 11997,6876 11998,6878 11999,6880 12001,6881 12002,6883 12003,6884 12004,6886 12006,6887 12008,6888 12008,6889 " />
<polyline fill="none" vector-effect="non-scaling-stroke" points="12008,6889 12010,6890 12011,6891 12013,6891 12015,6892 12017,6893 12018,6894 12020,6895 12022,6896 12024,6897 12026,6897 12028,6898 12029,6899 12031,6900 12033,6900 12035,6901 12037,6902 12039,6902 12041,6903 12043,6904 12044,6904 12046,6905 12048,6906 12050,6906 12052,6907 12054,6907 12056,6908 12058,6908 12060,6909 12062,6909 12064,6910 12066,6910 12068,6911 12070,6911 12072,6912 12073,6912 12075,6912 12077,6913 12079,6913 12081,6913 12083,6914 12085,6914 12087,6914 12089,6915 12091,6915 12093,6915 12095,6915 12097,6915 12099,6916 12101,6916 12103,6916 12105,6916 12107,6916 12109,6916 12111,6916 12113,6916 12115,6916 12117,6916 12119,6916 12121,6916 12123,6916 12125,6916 12127,6916 12129,6916 12131,6916 12133,6916 12135,6916 12137,6916 12139,6916 12141,6915 12143,6915 12145,6915 12147,6915 12149,6914 12151,6914 12153,6914 12155,6914 12157,6913 12159,6913 12161,6913 12163,6912 12165,6912 12167,6911 12169,6911 12171,6911 12173,6910 12175,6910 12177,6909 12179,6909 12180,6908 12182,6908 12184,6907 12186,6907 12188,6906 12190,6905 12192,6905 12194,6904 12196,6904 12198,6903 12200,6902 12201,6901 12203,6901 12205,6900 12207,6899 12209,6899 12211,6898 12213,6897 12214,6896 12216,6895 12218,6895 12220,6894 12222,6893 12223,6892 12225,6891 12227,6890 12229,6889 12230,6889 " />
<polyline fill="none" vector-effect="non-scaling-stroke" points="12230,6889 12231,6887 12233,6886 12234,6885 12236,6883 12237,6882 12238,6880 12239,6878 12240,6877 12241,6875 12242,6873 12242,6871 12243,6869 12243,6867 12243,6865 12244,6863 12244,6861 12244,6859 12243,6857 12243,6855 12243,6853 12242,6851 12242,6849 12241,6847 12240,6846 12239,6844 12238,6842 12237,6841 12236,6839 12234,6837 12233,6836 12232,6835 12230,6833 " />
<polyline fill="none" vector-effect="non-scaling-stroke" points="12230,6833 12228,6832 12226,6831 12224,6830 12223,6830 12221,6829 12219,6828 12217,6827 12215,6826 12214,6825 12212,6825 12210,6824 12208,6823 12206,6822 12204,6821 12202,6821 12201,6820 12199,6819 12197,6819 12195,6818 12193,6817 12191,6817 12189,6816 12187,6816 12185,6815 12184,6814 12182,6814 12180,6813 12178,6813 12176,6812 12174,6812 12172,6811 12170,6811 12168,6811 12166,6810 12164,6810 12162,6809 12160,6809 12158,6809 12156,6808 12154,6808 12152,6808 12150,6808 12148,6807 12146,6807 12144,6807 12142,6807 12140,6806 12138,6806 12136,6806 12134,6806 12132,6806 12130,6806 12128,6806 12126,6806 12124,6805 12122,6805 12120,6805 12118,6805 12116,6805 12114,6805 12112,6806 12110,6806 12108,6806 12106,6806 12104,6806 12102,6806 12100,6806 12098,6806 12096,6806 12094,6807 12092,6807 12090,6807 12088,6807 12086,6808 12084,6808 12083,6808 12081,6809 12079,6809 12077,6809 12075,6810 12073,6810 12071,6810 12069,6811 12067,6811 12065,6812 12063,6812 12061,6813 12059,6813 12057,6814 12055,6814 12053,6815 12051,6815 12049,6816 12047,6816 12046,6817 12044,6818 12042,6818 12040,6819 12038,6820 12036,6820 12034,6821 12032,6822 12031,6823 12029,6823 12027,6824 12025,6825 12023,6826 12021,6826 12020,6827 12018,6828 12016,6829 12014,6830 12012,6831 12011,6832 12009,6833 12008,6833 " />
</g>

<g fill="#000000" fill-opacity="1" stroke="#000000" stroke-opacity="1" stroke-width="1" stroke-linecap="round" stroke-linejoin="round" transform="matrix(1,0,0,1,0,0)"
font-family="Sans Serif" font-size="9" font-weight="400" font-style="normal" 
>
<path vector-effect="non-scaling-stroke" fill-rule="evenodd" d="M12306,9997 L12265,9747 L12348,9747 L12306,9997"/>
</g>

<g fill="#000000" fill-opacity="1" stroke="#000000" stroke-opacity="1" stroke-width="1" stroke-linecap="round" stroke-linejoin="round" transform="matrix(1,0,0,1,0,0)"
font-family="Sans Serif" font-size="9" font-weight="400" font-style="normal" 
>
<path vector-effect="non-scaling-stroke" fill-rule="evenodd" d="M12306,4002 L12348,4252 L12265,4252 L12306,4002"/>
</g>

<g fill="none" stroke="#000000" stroke-opacity="1" stroke-width="1" stroke-linecap="round" stroke-linejoin="round" transform="matrix(1,0,0,1,0,0)"
font-family="Sans Serif" font-size="9" font-weight="400" font-style="normal" 
>
<polyline fill="none" vector-effect="non-scaling-stroke" points="11369,6 12431,6 " />
<polyline fill="none" vector-effect="non-scaling-stroke" points="11369,1005 12431,1005 " />
<polyline fill="none" vector-effect="non-scaling-stroke" points="12306,6 12306,1005 " />
<polyline fill="none" vector-effect="non-scaling-stroke" points="12049,672 11994,617 " />
<polyline fill="none" vector-effect="non-scaling-stroke" points="11994,617 12244,617 " />
<polyline fill="none" vector-effect="non-scaling-stroke" points="12244,533 12230,533 " />
<polyline fill="none" vector-effect="non-scaling-stroke" points="12008,367 12006,368 12005,369 12003,371 12002,372 12001,374 12000,375 11999,377 11998,379 11997,381 11996,383 11995,385 11995,386 11994,388 11994,390 11994,392 11994,394 11994,396 11994,398 11994,400 11995,402 11995,404 11996,406 11997,408 11997,410 11998,412 11999,413 12001,415 12002,417 12003,418 12004,419 12006,421 12008,422 " />
<polyline fill="none" vector-effect="non-scaling-stroke" points="12008,422 12010,423 12011,424 12013,425 12015,426 12017,427 12018,428 12020,428 12022,429 12024,430 12026,431 12028,432 12029,432 12031,433 12033,434 12035,435 12037,435 12039,436 12041,437 12043,437 12044,438 12046,439 12048,439 12050,440 12052,440 12054,441 12056,442 12058,442 12060,443 12062,443 12064,444 12066,444 12068,444 12070,445 12072,445 12073,446 12075,446 12077,446 12079,447 12081,447 12083,447 12085,448 12087,448 12089,448 12091,448 12093,449 12095,449 12097,449 12099,449 12101,449 12103,450 12105,450 12107,450 12109,450 12111,450 12113,450 12115,450 12117,450 12119,450 12121,450 12123,450 12125,450 12127,450 12129,450 12131,450 12133,450 12135,449 12137,449 12139,449 12141,449 12143,449 12145,449 12147,448 12149,448 12151,448 12153,448 12155,447 12157,447 12159,447 12161,446 12163,446 12165,445 12167,445 12169,445 12171,444 12173,444 12175,443 12177,443 12179,442 12180,442 12182,441 12184,441 12186,440 12188,440 12190,439 12192,438 12194,438 12196,437 12198,436 12200,436 12201,435 12203,434 12205,434 12207,433 12209,432 12211,431 12213,431 12214,430 12216,429 12218,428 12220,427 12222,426 12223,426 12225,425 12227,424 12229,423 12230,422 " />
<polyline fill="none" vector-effect="non-scaling-stroke" points="12230,422 12231,421 12233,420 12234,418 12236,417 12237,415 12238,414 12239,412 12240,410 12241,408 12242,406 12242,405 12243,403 12243,401 12243,399 12244,397 12244,395 12244,393 12243,391 12243,389 12243,387 12242,385 12242,383 12241,381 12240,379 12239,377 12238,376 12237,374 12236,373 12234,371 12233,370 12232,368 12230,367 " />
<polyline fill="none" vector-effect="non-scaling-stroke" points="12230,367 12228,366 12226,365 12224,364 12223,363 12221,362 12219,361 12217,361 12215,360 12214,359 12212,358 12210,357 12208,357 12206,356 12204,355 12202,354 12201,354 12199,353 12197,352 12195,352 12193,351 12191,350 12189,350 12187,349 12185,349 12184,348 12182,348 12180,347 12178,347 12176,346 12174,346 12172,345 12170,345 12168,344 12166,344 12164,343 12162,343 12160,343 12158,342 12156,342 12154,342 12152,341 12150,341 12148,341 12146,341 12144,340 12142,340 12140,340 12138,340 12136,340 12134,340 12132,339 12130,339 12128,339 12126,339 12124,339 12122,339 12120,339 12118,339 12116,339 12114,339 12112,339 12110,339 12108,339 12106,339 12104,339 12102,340 12100,340 12098,340 12096,340 12094,340 12092,341 12090,341 12088,341 12086,341 12084,342 12083,342 12081,342 12079,342 12077,343 12075,343 12073,344 12071,344 12069,344 12067,345 12065,345 12063,346 12061,346 12059,347 12057,347 12055,348 12053,348 12051,349 12049,349 12047,350 12046,351 12044,351 12042,352 12040,353 12038,353 12036,354 12034,355 12032,355 12031,356 12029,357 12027,358 12025,358 12023,359 12021,360 12020,361 12018,362 12016,363 12014,364 12012,364 12011,365 12009,366 12008,367 " />
</g>

<g fill="#000000" fill-opacity="1" stroke="#000000" stroke-opacity="1" stroke-width="1" stroke-linecap="round" stroke-linejoin="round" transform="matrix(1,0,0,1,0,0)"
font-family="Sans Serif" font-size="9" font-weight="400" font-style="normal" 
>
<path vector-effect="non-scaling-stroke" fill-rule="evenodd" d="M12306,6 L12348,256 L12265,256 L12306,6"/>
</g>

<g fill="#000000" fill-opacity="1" stroke="#000000" stroke-opacity="1" stroke-width="1" stroke-linecap="round" stroke-linejoin="round" transform="matrix(1,0,0,1,0,0)"
font-family="Sans Serif" font-size="9" font-weight="400" font-style="normal" 
>
<path vector-effect="non-scaling-stroke" fill-rule="evenodd" d="M12306,1005 L12265,755 L12348,755 L12306,1005"/>
</g>

<g fill="none" stroke="#000000" stroke-opacity="1" stroke-width="1" stroke-linecap="round" stroke-linejoin="round" transform="matrix(1,0,0,1,0,0)"
font-family="Sans Serif" font-size="9" font-weight="400" font-style="normal" 
>
<polyline fill="none" vector-effect="non-scaling-stroke" points="6311,5501 6313,5501 " />
<polyline fill="none" vector-effect="non-scaling-stroke" points="6312,5500 6312,5502 " />
<polyline fill="none" vector-effect="non-scaling-stroke" points="4650,5501 4188,5501 " />
<polyline fill="none" vector-effect="non-scaling-stroke" points="4650,9997 4188,9997 " />
<polyline fill="none" vector-effect="non-scaling-stroke" points="4313,5501 4313,9997 " />
<polyline fill="none" vector-effect="non-scaling-stroke" points="4001,7902 4195,7957 " />
<polyline fill="none" vector-effect="non-scaling-stroke" points="4195,7957 4195,7818 " />
<polyline fill="none" vector-effect="non-scaling-stroke" points="4140,7860 4251,7860 " />
<polyline fill="none" vector-effect="non-scaling-stroke" points="4251,7735 4237,7735 " />
<polyline fill="none" vector-effect="non-scaling-stroke" points="4001,7541 4001,7652 " />
<polyline fill="none" vector-effect="non-scaling-stroke" points="4001,7652 4112,7652 " />
<polyline fill="none" vector-effect="non-scaling-stroke" points="4112,7652 4112,7596 " />
<polyline fill="none" vector-effect="non-scaling-stroke" points="4168,7541 4166,7541 4164,7541 4162,7541 4160,7541 4158,7542 4156,7542 4154,7543 4152,7543 4150,7544 4148,7544 4146,7545 4144,7546 4143,7547 4141,7548 4139,7549 4137,7550 4136,7551 4134,7552 4133,7553 4131,7555 4129,7556 4128,7557 4127,7559 4125,7560 4124,7562 4123,7564 4122,7565 4121,7567 4120,7569 4119,7570 4118,7572 4117,7574 4116,7576 4115,7578 4115,7579 4114,7581 4114,7583 4113,7585 4113,7587 4113,7589 4112,7591 4112,7593 4112,7595 4112,7596 " />
<polyline fill="none" vector-effect="non-scaling-stroke" points="4168,7541 4195,7541 " />
<polyline fill="none" vector-effect="non-scaling-stroke" points="4251,7596 4251,7594 4251,7592 4251,7590 4250,7588 4250,7586 4250,7584 4249,7583 4249,7581 4248,7579 4247,7577 4247,7575 4246,7573 4245,7571 4244,7570 4243,7568 4242,7566 4241,7564 4240,7563 4238,7561 4237,7560 4236,7558 4234,7557 4233,7555 4231,7554 4230,7553 4228,7552 4227,7551 4225,7549 4223,7548 4221,7547 4220,7546 4218,7546 4216,7545 4214,7544 4212,7544 4210,7543 4208,7542 4206,7542 4205,7542 4203,7541 4201,7541 4199,7541 4197,7541 4195,7541 " />
<polyline fill="none" vector-effect="non-scaling-stroke" points="4251,7596 4251,7652 " />
</g>

<g fill="#000000" fill-opacity="1" stroke="#000000" stroke-opacity="1" stroke-width="1" stroke-linecap="round" stroke-linejoin="round" transform="matrix(1,0,0,1,0,0)"
font-family="Sans Serif" font-size="9" font-weight="400" font-style="normal" 
>
<path vector-effect="non-scaling-stroke" fill-rule="evenodd" d="M4313,5501 L4355,5751 L4272,5751 L4313,5501"/>
</g>

<g fill="#000000" fill-opacity="1" stroke="#000000" stroke-opacity="1" stroke-width="1" stroke-linecap="round" stroke-linejoin="round" transform="matrix(1,0,0,1,0,0)"
font-family="Sans Serif" font-size="9" font-weight="400" font-style="normal" 
>
<path vector-effect="non-scaling-stroke" fill-rule="evenodd" d="M4313,9997 L4272,9747 L4355,9747 L4313,9997"/>
</g>

<g fill="none" stroke="#000000" stroke-opacity="1" stroke-width="1" stroke-linecap="round" stroke-linejoin="round" transform="matrix(1,0,0,1,0,0)"
font-family="Sans Serif" font-size="9" font-weight="400" font-style="normal" 
>
<polyline fill="none" vector-effect="non-scaling-stroke" points="6312,5439 6312,2679 " />
<polyline fill="none" vector-effect="non-scaling-stroke" points="1316,5439 1316,2679 " />
<polyline fill="none" vector-effect="non-scaling-stroke" points="6312,2803 1316,2803 " />
<polyline fill="none" vector-effect="non-scaling-stroke" points="3730,2491 3619,2491 " />
<polyline fill="none" vector-effect="non-scaling-stroke" points="3619,2491 3619,2602 " />
<polyline fill="none" vector-effect="non-scaling-stroke" points="3619,2602 3675,2602 " />
<polyline fill="none" vector-effect="non-scaling-stroke" points="3730,2658 3730,2656 3730,2654 3730,2652 3730,2650 3730,2648 3729,2646 3729,2644 3728,2642 3728,2640 3727,2638 3726,2636 3725,2635 3725,2633 3724,2631 3723,2629 3722,2628 3720,2626 3719,2624 3718,2623 3717,2621 3715,2620 3714,2618 3712,2617 3711,2616 3709,2614 3708,2613 3706,2612 3705,2611 3703,2610 3701,2609 3699,2608 3698,2607 3696,2606 3694,2606 3692,2605 3690,2604 3688,2604 3686,2603 3684,2603 3682,2603 3680,2603 3678,2602 3676,2602 3675,2602 " />
<polyline fill="none" vector-effect="non-scaling-stroke" points="3730,2658 3730,2686 " />
<polyline fill="none" vector-effect="non-scaling-stroke" points="3675,2741 3677,2741 3679,2741 3681,2741 3683,2740 3685,2740 3687,2740 3689,2739 3691,2739 3693,2738 3695,2737 3696,2737 3698,2736 3700,2735 3702,2734 3704,2733 3705,2732 3707,2731 3709,2730 3710,2729 3712,2727 3713,2726 3715,2724 3716,2723 3717,2722 3718,2720 3720,2718 3721,2717 3722,2715 3723,2713 3724,2712 3725,2710 3726,2708 3726,2706 3727,2704 3728,2702 3728,2701 3729,2699 3729,2697 3730,2695 3730,2693 3730,2691 3730,2689 3730,2687 3730,2686 " />
<polyline fill="none" vector-effect="non-scaling-stroke" points="3675,2741 3619,2741 " />
<polyline fill="none" vector-effect="non-scaling-stroke" points="3814,2741 3814,2727 " />
<polyline fill="none" vector-effect="non-scaling-stroke" points="3980,2505 3979,2504 3978,2502 3976,2501 3975,2499 3973,2498 3972,2497 3970,2496 3968,2495 3966,2494 3964,2493 3963,2493 3961,2492 3959,2492 3957,2492 3955,2491 3953,2491 3951,2491 3949,2491 3947,2492 3945,2492 3943,2493 3941,2493 3939,2494 3937,2495 3935,2496 3934,2497 3932,2498 3931,2499 3929,2500 3928,2502 3926,2503 3925,2505 " />
<polyline fill="none" vector-effect="non-scaling-stroke" points="3925,2505 3924,2507 3923,2509 3922,2510 3921,2512 3920,2514 3919,2516 3919,2518 3918,2519 3917,2521 3916,2523 3915,2525 3915,2527 3914,2529 3913,2531 3912,2532 3912,2534 3911,2536 3910,2538 3910,2540 3909,2542 3908,2544 3908,2546 3907,2548 3907,2549 3906,2551 3906,2553 3905,2555 3904,2557 3904,2559 3904,2561 3903,2563 3903,2565 3902,2567 3902,2569 3901,2571 3901,2573 3901,2575 3900,2577 3900,2579 3900,2581 3899,2583 3899,2585 3899,2587 3899,2589 3898,2591 3898,2593 3898,2595 3898,2597 3898,2599 3898,2601 3897,2603 3897,2605 3897,2607 3897,2609 3897,2611 3897,2613 3897,2615 3897,2617 3897,2619 3897,2621 3897,2623 3897,2625 3897,2627 3897,2629 3897,2631 3898,2633 3898,2635 3898,2637 3898,2639 3898,2641 3898,2643 3899,2644 3899,2646 3899,2648 3900,2650 3900,2652 3900,2654 3900,2656 3901,2658 3901,2660 3902,2662 3902,2664 3902,2666 3903,2668 3903,2670 3904,2672 3904,2674 3905,2676 3905,2678 3906,2680 3906,2682 3907,2684 3907,2686 3908,2687 3909,2689 3909,2691 3910,2693 3911,2695 3911,2697 3912,2699 3913,2701 3913,2703 3914,2704 3915,2706 3916,2708 3916,2710 3917,2712 3918,2714 3919,2715 3920,2717 3921,2719 3921,2721 3922,2723 3923,2724 3924,2726 3925,2727 " />
<polyline fill="none" vector-effect="non-scaling-stroke" points="3925,2727 3926,2729 3927,2730 3929,2732 3930,2733 3932,2734 3933,2735 3935,2736 3937,2737 3939,2738 3941,2739 3942,2740 3944,2740 3946,2740 3948,2741 3950,2741 3952,2741 3954,2741 3956,2741 3958,2741 3960,2740 3962,2740 3964,2739 3966,2738 3968,2737 3970,2737 3971,2736 3973,2734 3975,2733 3976,2732 3977,2730 3979,2729 3980,2727 " />
<polyline fill="none" vector-effect="non-scaling-stroke" points="3980,2727 3981,2725 3982,2724 3983,2722 3984,2720 3985,2718 3986,2716 3986,2715 3987,2713 3988,2711 3989,2709 3990,2707 3990,2705 3991,2704 3992,2702 3993,2700 3993,2698 3994,2696 3995,2694 3995,2692 3996,2690 3997,2689 3997,2687 3998,2685 3998,2683 3999,2681 4000,2679 4000,2677 4001,2675 4001,2673 4002,2671 4002,2669 4002,2667 4003,2665 4003,2663 4004,2661 4004,2659 4004,2658 4005,2656 4005,2654 4005,2652 4006,2650 4006,2648 4006,2646 4006,2644 4007,2642 4007,2640 4007,2638 4007,2636 4007,2634 4008,2632 4008,2630 4008,2628 4008,2626 4008,2624 4008,2622 4008,2620 4008,2618 4008,2616 4008,2614 4008,2612 4008,2610 4008,2608 4008,2606 4008,2604 4008,2602 4007,2600 4007,2598 4007,2596 4007,2594 4007,2592 4007,2590 4006,2588 4006,2586 4006,2584 4006,2582 4005,2580 4005,2578 4005,2576 4004,2574 4004,2572 4003,2570 4003,2568 4003,2566 4002,2564 4002,2562 4001,2560 4001,2558 4000,2556 4000,2554 3999,2553 3999,2551 3998,2549 3998,2547 3997,2545 3996,2543 3996,2541 3995,2539 3994,2537 3994,2535 3993,2534 3992,2532 3992,2530 3991,2528 3990,2526 3989,2524 3989,2522 3988,2521 3987,2519 3986,2517 3985,2515 3984,2513 3984,2511 3983,2510 3982,2508 3981,2506 3980,2505 " />
</g>

<g fill="#000000" fill-opacity="1" stroke="#000000" stroke-opacity="1" stroke-width="1" stroke-linecap="round" stroke-linejoin="round" transform="matrix(1,0,0,1,0,0)"
font-family="Sans Serif" font-size="9" font-weight="400" font-style="normal" 
>
<path vector-effect="non-scaling-stroke" fill-rule="evenodd" d="M6312,2803 L6062,2845 L6062,2762 L6312,2803"/>
</g>

<g fill="#000000" fill-opacity="1" stroke="#000000" stroke-opacity="1" stroke-width="1" stroke-linecap="round" stroke-linejoin="round" transform="matrix(1,0,0,1,0,0)"
font-family="Sans Serif" font-size="9" font-weight="400" font-style="normal" 
>
<path vector-effect="non-scaling-stroke" fill-rule="evenodd" d="M1316,2803 L1566,2762 L1566,2845 L1316,2803"/>
</g>

<g fill="#000000" fill-opacity="1" stroke="#000000" stroke-opacity="1" stroke-width="1" stroke-linecap="round" stroke-linejoin="round" transform="matrix(1,0,0,1,0,0)"
font-family="Sans Serif" font-size="9" font-weight="400" font-style="normal" 
>
<path vector-effect="non-scaling-stroke" fill-rule="evenodd" d="M7717,6262 L7478,6180 L7518,6106 L7717,6262"/>
</g>

<g fill="none" stroke="#000000" stroke-opacity="1" stroke-width="1" stroke-linecap="round" stroke-linejoin="round" transform="matrix(1,0,0,1,0,0)"
font-family="Sans Serif" font-size="9" font-weight="400" font-style="normal" 
>
<polyline fill="none" vector-effect="non-scaling-stroke" points="6312,5501 7717,6262 " />
<polyline fill="none" vector-effect="non-scaling-stroke" points="6990,5576 7065,5554 " />
<polyline fill="none" vector-effect="non-scaling-stroke" points="7065,5554 6947,5774 " />
<polyline fill="none" vector-effect="non-scaling-stroke" points="7020,5813 7026,5801 " />
<polyline fill="none" vector-effect="non-scaling-stroke" points="7159,5731 7208,5757 " />
<polyline fill="none" vector-effect="non-scaling-stroke" points="7230,5833 7231,5831 7232,5829 7233,5827 7234,5825 7234,5823 7235,5821 7235,5820 7236,5818 7236,5816 7236,5814 7237,5812 7237,5810 7237,5808 7237,5806 7237,5804 7237,5802 7237,5800 7236,5798 7236,5796 7236,5794 7235,5792 7235,5790 7234,5788 7233,5786 7232,5784 7232,5782 7231,5781 7230,5779 7229,5777 7228,5776 7227,5774 7225,5772 7224,5771 7223,5769 7221,5768 7220,5766 7219,5765 7217,5764 7216,5762 7214,5761 7212,5760 7211,5759 7209,5758 7208,5757 " />
<polyline fill="none" vector-effect="non-scaling-stroke" points="7230,5833 7217,5857 " />
<polyline fill="none" vector-effect="non-scaling-stroke" points="7119,5804 7118,5806 7118,5808 7117,5810 7116,5811 7115,5813 7115,5815 7114,5817 7114,5819 7114,5821 7113,5823 7113,5825 7113,5827 7113,5829 7113,5831 7113,5833 7113,5835 7113,5837 7113,5839 7114,5841 7114,5843 7115,5845 7115,5847 7116,5849 7116,5851 7117,5852 7118,5854 7119,5856 7120,5858 7121,5860 7122,5861 7123,5863 7124,5864 7126,5866 7127,5868 7128,5869 7130,5870 7131,5872 7133,5873 7134,5874 7136,5876 7137,5877 7139,5878 7141,5879 7143,5880 7144,5881 7146,5881 7148,5882 7150,5883 7152,5884 7154,5884 7156,5885 7158,5885 7160,5885 7162,5886 7164,5886 7165,5886 7167,5886 7169,5886 7171,5886 7173,5886 7175,5886 7177,5885 7179,5885 7181,5884 7183,5884 7185,5883 7187,5883 7189,5882 7191,5881 7193,5880 7194,5880 7196,5879 7198,5877 7200,5876 7201,5875 7203,5874 7204,5873 7206,5871 7207,5870 7209,5869 7210,5867 7211,5866 7213,5864 7214,5862 7215,5861 7216,5859 7217,5857 " />
<polyline fill="none" vector-effect="non-scaling-stroke" points="7119,5804 7159,5731 " />
<polyline fill="none" vector-effect="non-scaling-stroke" points="7285,5673 7283,5673 7281,5672 7279,5672 7277,5672 7275,5671 7273,5671 7271,5671 7269,5671 7267,5671 7265,5670 7263,5670 7261,5670 7259,5670 7257,5670 7255,5670 7253,5671 7251,5671 7249,5671 7247,5671 7245,5671 7243,5672 7241,5672 7239,5672 7237,5673 7235,5673 7234,5674 7232,5674 7230,5675 7228,5675 7226,5676 7224,5676 7222,5677 7220,5678 7218,5678 7216,5679 7215,5680 7213,5681 7211,5682 7209,5682 7207,5683 7206,5684 7204,5685 7202,5686 7200,5687 7199,5688 7197,5689 7195,5691 7194,5692 7192,5693 7191,5694 7189,5695 7187,5697 7186,5698 7184,5699 7183,5700 7181,5702 7180,5703 7179,5705 7177,5706 7176,5708 7174,5709 7173,5711 7172,5712 7171,5714 7169,5715 7168,5717 7167,5718 7166,5720 7165,5722 7164,5723 7162,5725 7161,5727 7160,5728 7159,5730 7159,5731 " />
<polyline fill="none" vector-effect="non-scaling-stroke" points="11307,4002 9808,2504 " />
<polyline fill="none" vector-effect="non-scaling-stroke" points="9808,2504 11307,1005 " />
</g>
</g>
</svg>
